<svg xmlns="http://www.w3.org/2000/svg" width="24" height="24" viewBox="0 0 24 24"><g fill="#228AE6"><path d="M17.894 16.729c-.107.179-.286.271-.592.271h-3.801c.026 0 .176 0 .308 1h3.281c.152 0 .621-.13.681-.352.035-.13.129-.668.123-.919zM11.193 17H4.62a1.73 1.73 0 0 1-1.729-1.734l.015-12.157c0-.516.317-.85.688-1 .473-.192 1.03-.06 1.537.463.118.122.281.138.402.02.122-.118.109-.306-.008-.428-.681-.704-1.719-.97-2.427-.684C2.499 1.722 2 2.323 2 3.082v12.337C2 16.714 3.322 18 4.62 18h6.725c-.236-1-.14-1-.152-1z"/><path d="M10.496 11.728l.004-.005 4.203-4.2a.306.306 0 0 0 .001-.434.306.306 0 0 0-.434-.001l-4.208 4.206A1.535 1.535 0 1 1 7.89 9.121l6.436-6.433c.831-.83 2.175-1.028 3.006-.198.829.83.727 2.37-.104 3.176L13.435 9.39c-.374.375-.375 1.085-.001 1.461l1.488 1.54c.25-.042.507-.042.767-.042.012 0 .023.014.033.014l-1.853-1.852a.347.347 0 0 1 0-.493l3.902-3.9a2.738 2.738 0 0 0-3.872-3.871l-6.443 6.44a2.153 2.153 0 0 0 0 3.041 2.152 2.152 0 0 0 3.04 0z"/><path d="M12.838 19.807a4.15 4.15 0 0 0 5.094.601l1.918 1.918a1.063 1.063 0 1 0 1.503-1.505l-1.955-1.954a4.149 4.149 0 0 0-.704-4.916 4.144 4.144 0 0 0-5.855.001 4.144 4.144 0 0 0-.001 5.855zm1.106-4.747a2.581 2.581 0 0 1 3.642-.001c.707.708.914 1.728.623 2.619a2.548 2.548 0 0 1-1.438 1.569 2.578 2.578 0 0 1-2.825-.548 2.576 2.576 0 0 1-.002-3.639z"/></g></svg>