<?xml version="1.0" encoding="utf-8"?>
<!-- Generator: Adobe Illustrator 16.0.0, SVG Export Plug-In . SVG Version: 6.00 Build 0)  -->
<!DOCTYPE svg PUBLIC "-//W3C//DTD SVG 1.1//EN" "http://www.w3.org/Graphics/SVG/1.1/DTD/svg11.dtd">
<svg version="1.1" id="Livello_1" xmlns="http://www.w3.org/2000/svg" xmlns:xlink="http://www.w3.org/1999/xlink" x="0px" y="0px"
	 width="24px" height="24px" viewBox="0 0 24 24" enable-background="new 0 0 24 24" xml:space="preserve">
<g>
	<g>
		<path fill="#228AE6" d="M17.894,16.729C17.787,16.908,17.608,17,17.302,17h-3.801c0.026,0,0.176,0,0.308,1h3.281
			c0.152,0,0.621-0.13,0.681-0.352C17.806,17.518,17.9,16.98,17.894,16.729z"/>
		<path fill="#228AE6" d="M11.193,17H4.62c-0.959,0-1.729-0.777-1.729-1.734L2.906,3.109c0-0.516,0.317-0.85,0.688-1
			c0.473-0.192,1.03-0.06,1.537,0.463c0.118,0.122,0.281,0.138,0.402,0.02c0.122-0.118,0.109-0.306-0.008-0.428
			C4.844,1.46,3.806,1.194,3.098,1.48C2.499,1.722,2,2.323,2,3.082v12.337C2,16.714,3.322,18,4.62,18h6.725
			C11.109,17,11.205,17,11.193,17z"/>
		<path fill="#228AE6" d="M10.496,11.728l0.004-0.005c1.458-1.456,4.162-4.159,4.203-4.2c0.121-0.12,0.121-0.313,0.001-0.434
			c-0.119-0.121-0.313-0.121-0.434-0.001c-0.042,0.042-4.208,4.206-4.208,4.206c-0.599,0.6-1.572,0.6-2.172,0
			c-0.601-0.601-0.601-1.573,0-2.173l6.436-6.433l0,0c0.831-0.83,2.175-1.028,3.006-0.198c0.829,0.83,0.727,2.37-0.104,3.176l0,0
			L13.435,9.39c-0.374,0.375-0.375,1.085-0.001,1.461l1.488,1.54c0.25-0.042,0.507-0.042,0.767-0.042
			c0.012,0,0.023,0.014,0.033,0.014l-1.853-1.852c-0.137-0.137-0.137-0.356,0-0.493l3.902-3.9c1.068-1.069,1.068-2.801,0-3.871
			c-1.069-1.069-2.804-1.069-3.872,0L7.456,8.687c-0.838,0.839-0.838,2.202,0,3.041C8.295,12.566,9.657,12.566,10.496,11.728z"/>
	</g>
	<path fill="#228AE6" d="M12.838,19.807c1.38,1.379,3.498,1.579,5.094,0.601l1.918,1.918c0.415,0.416,1.088,0.416,1.503,0
		c0.416-0.415,0.416-1.088,0-1.505l-1.955-1.954c0.859-1.571,0.625-3.585-0.704-4.916c-1.613-1.614-4.241-1.614-5.855,0.001
		C11.224,15.565,11.224,18.193,12.838,19.807z M13.944,15.06c1.005-1.003,2.638-1.003,3.642-0.001
		c0.707,0.708,0.914,1.728,0.623,2.619c-0.121,0.374-0.327,0.726-0.623,1.022c-0.242,0.24-0.52,0.422-0.815,0.547
		c-0.937,0.396-2.062,0.214-2.825-0.548C12.942,17.696,12.941,16.063,13.944,15.06z"/>
</g>
</svg>
