<svg xmlns="http://www.w3.org/2000/svg" width="24" height="24" viewBox="0 0 24 24"><path fill="#F5B79F" d="M2.311 0h19.378A2.312 2.312 0 0 1 24 2.311V21.69a2.312 2.312 0 0 1-2.311 2.311H2.311A2.313 2.313 0 0 1 0 21.689V2.311A2.311 2.311 0 0 1 2.311 0z"/><path fill="#FFF" d="M3.697 4.806h13.492v1.021H3.697zM17.186 9.218v4.359h-3.892a3.79 3.79 0 0 0 3.741 3.212A3.788 3.788 0 0 0 20.824 13a3.788 3.788 0 0 0-3.638-3.782zM3.77 9.578h6.905v1.021H3.77zM3.77 12.33h6.905v1.021H3.77zM3.77 15.083h6.905v1.021H3.77z"/></svg>