<svg xmlns="http://www.w3.org/2000/svg" width="24" height="24" viewBox="0 0 24 24"><path fill="#AFD6B7" d="M2.31 0h19.38A2.312 2.312 0 0 1 24 2.31V21.69a2.312 2.312 0 0 1-2.31 2.31H2.31A2.312 2.312 0 0 1 0 21.69V2.31A2.313 2.313 0 0 1 2.31 0z"/><path fill="none" stroke="#66AD75" stroke-width=".349" d="M2.293 21.613c6.078-2.38 20.238-2.276 13.063-3.798-13.634-2.891 4.953-1.668 5.972-6.044"/><path fill="#FFF" d="M28.11 1.743s.036-.055.036-.073c0-.027-.018-.04-.036-.04s-.036.013-.036.04c0 .018.036.074.036.074zm-.012-.075a.013.013 0 1 1 .025 0 .013.013 0 0 1-.025 0z"/><path fill="none" stroke="#6A9FF5" stroke-width=".29" stroke-opacity=".502" d="M28.043 1.709c.033.013.058.05.09.06"/></svg>