<svg xmlns="http://www.w3.org/2000/svg" width="24" height="24" viewBox="0 0 24 24"><path fill="#AFAEF5" d="M2.31 0h19.38A2.312 2.312 0 0 1 24 2.311v19.378A2.312 2.312 0 0 1 21.69 24H2.31A2.312 2.312 0 0 1 0 21.689V2.311A2.313 2.313 0 0 1 2.31 0z"/><g fill="#FFF"><path d="M1.671 13.279l1.441-.141c.087.484.264.84.528 1.066.266.227.623.34 1.074.34.477 0 .836-.1 1.078-.303.242-.201.363-.438.363-.709a.668.668 0 0 0-.152-.441c-.103-.123-.28-.229-.533-.318a17.408 17.408 0 0 0-1.187-.32c-.794-.197-1.352-.439-1.672-.726-.45-.404-.676-.896-.676-1.477 0-.374.105-.723.317-1.048.214-.326.519-.573.918-.744.399-.17.881-.255 1.444-.255.921 0 1.614.202 2.08.606s.71.943.733 1.617l-1.481.065c-.063-.377-.2-.648-.408-.813-.209-.166-.521-.248-.938-.248-.431 0-.768.088-1.012.265a.535.535 0 0 0-.234.455.56.56 0 0 0 .22.445c.187.157.641.321 1.361.491.721.17 1.254.346 1.6.528.346.182.615.43.811.746s.293.704.293 1.169c0 .42-.117.814-.351 1.182s-.563.639-.991.818c-.427.178-.959.268-1.597.268-.928 0-1.64-.215-2.137-.643-.499-.429-.795-1.054-.892-1.875zM10.757 15.666L8.134 8.329H9.74l1.857 5.431 1.797-5.431h1.571l-2.628 7.337h-1.58zM19.135 12.969v-1.236h3.194v2.924c-.311.299-.761.564-1.35.793s-1.186.342-1.789.342c-.768 0-1.437-.16-2.008-.482a3.078 3.078 0 0 1-1.286-1.381 4.47 4.47 0 0 1-.431-1.955c0-.764.16-1.443.48-2.038a3.23 3.23 0 0 1 1.407-1.366c.47-.244 1.056-.366 1.757-.366.911 0 1.622.191 2.135.573.512.382.842.91.988 1.584l-1.472.275c-.104-.36-.298-.645-.583-.853s-.64-.313-1.067-.313c-.647 0-1.162.205-1.544.616-.383.41-.573 1.02-.573 1.827 0 .871.193 1.523.58 1.958.388.436.895.654 1.521.654.311 0 .622-.061.934-.184.313-.121.58-.27.804-.441v-.932h-1.697z"/></g></svg>