<svg xmlns="http://www.w3.org/2000/svg" width="24" height="24" viewBox="0 0 24 24"><path fill="#F26666" d="M2.31 0h19.38A2.312 2.312 0 0 1 24 2.31V21.69a2.312 2.312 0 0 1-2.31 2.31H2.31A2.312 2.312 0 0 1 0 21.69V2.31A2.311 2.311 0 0 1 2.31 0z"/><g fill="#FFF"><path d="M2.359 15.669V8.331h2.377c.902 0 1.488.037 1.764.11.42.11.771.35 1.055.718.285.369.425.845.425 1.429 0 .451-.082.829-.244 1.136a2.024 2.024 0 0 1-.623.723c-.254.176-.51.292-.77.349-.354.07-.865.105-1.537.105h-.964v2.768H2.359zm1.483-6.097v2.082h.811c.584 0 .975-.038 1.172-.115a.992.992 0 0 0 .463-.36.993.993 0 0 0 .166-.571c0-.267-.078-.487-.234-.661s-.357-.281-.597-.325c-.178-.033-.531-.05-1.066-.05h-.715zM9.193 8.331H11.9c.611 0 1.076.046 1.396.14.43.126.799.352 1.105.676.309.324.541.72.701 1.188.16.469.24 1.047.24 1.735 0 .604-.074 1.124-.225 1.562-.184.534-.445.966-.785 1.296-.258.251-.605.446-1.043.586-.326.104-.764.155-1.311.155H9.193V8.331zm1.481 1.241v4.86h1.107c.412 0 .711-.023.895-.07.24-.06.439-.161.6-.305.158-.144.287-.38.387-.709.1-.328.15-.776.15-1.344s-.051-1.003-.15-1.306c-.1-.304-.24-.541-.42-.711a1.416 1.416 0 0 0-.686-.346c-.207-.046-.613-.07-1.217-.07h-.666zM16.609 15.669V8.331h5.031v1.241h-3.549v1.737h3.063v1.242h-3.063v3.118h-1.482z"/></g></svg>