<svg xmlns="http://www.w3.org/2000/svg" width="24" height="24" viewBox="0 0 24 24"><path fill="#F693B0" d="M2.31 0H21.69a2.312 2.312 0 0 1 2.31 2.311V21.69a2.312 2.312 0 0 1-2.31 2.311H2.31A2.311 2.311 0 0 1 0 21.69V2.311A2.311 2.311 0 0 1 2.31 0z"/><g transform="matrix(.26458 0 0 .26458 -8.601 16.96)"><path fill="#FFF" d="M79.103-50.552c0 11.516 18.971 19.485 18.971 31 0 4.126-1.451 8.198-3.809 12.036-.458.465-1.093.698-1.727.698-1.181 0-2.359-.639-2.089-1.572 2.362-3.543 3.816-7.323 3.816-11.161 0-6.053-8.626-12.099-15.162-16.462h-1.451v-14.539h1.451z"/><path fill="#FFF" d="M75.349-50.552h3.075c.317 0 .579.262.579.579v46.997a.58.58 0 0 1-.579.579h-3.075a.58.58 0 0 1-.581-.579v-46.997c0-.317.26-.579.581-.579z"/><a transform="matrix(6.54985 0 0 6.54985 -548.804 -42.334)"><path fill="#FFF" d="M94.636 4.743c.635 0 1.236.329 1.236 1.031 0 .817-.635 1.372-1.168 1.689-.408.238-.862.409-1.327.409-.635 0-1.236-.329-1.236-1.032 0-.816.635-1.372 1.168-1.689.409-.238.862-.408 1.327-.408z"/></a></g></svg>