<svg xmlns="http://www.w3.org/2000/svg" width="24" height="24" viewBox="0 0 24 24"><g transform="translate(-4.334 -73.098)"><path fill="#FBC98E" d="M6.645 73.098h19.378a2.312 2.312 0 0 1 2.311 2.311v19.378a2.312 2.312 0 0 1-2.311 2.311H6.645a2.311 2.311 0 0 1-2.311-2.311V75.409a2.31 2.31 0 0 1 2.311-2.311z"/><path fill="#FFF" fill-opacity=".965" d="M5.462 76.397h21.369v9.509c-.001 1.735-6.935 4.504-10.744-.047-3.847-4.128-10.599-1.972-10.625.047v-9.509z"/><circle fill="#FBC98E" cx="23.841" cy="79.326" r="2.094"/><path fill="none" stroke="#000" stroke-width=".103" d="M6.184 77.443"/></g></svg>