<svg xmlns="http://www.w3.org/2000/svg" width="24" height="24" viewBox="0 0 24 24"><path fill="#F7DE79" d="M2.313 0h19.366a2.312 2.312 0 0 1 2.312 2.311V21.69a2.312 2.312 0 0 1-2.312 2.311H2.313A2.312 2.312 0 0 1 .001 21.69V2.311A2.311 2.311 0 0 1 2.313 0z"/><path fill="#FFF" d="M0 7.658h1.6v2.418H0zM1.6 10.076h1.601v2.419H1.6zM3.2 7.658h1.6v2.418H3.2zM4.8 10.076h1.601v2.419H4.8zM6.4 7.658H8v2.418H6.4zM8 10.076h1.6v2.419H8zM9.6 7.658h1.601v2.418H9.6zM11.2 10.076h1.6v2.419h-1.6zM12.8 7.658h1.601v2.418H12.8zM14.4 10.076H16v2.419h-1.6zM16 7.658h1.6v2.418H16zM17.6 10.076h1.601v2.419H17.6zM19.2 7.658h1.6v2.418h-1.6zM20.8 10.076h1.601v2.419H20.8zM22.4 7.658H24v2.418h-1.6z"/></svg>