<svg xmlns="http://www.w3.org/2000/svg" width="24" height="24" viewBox="0 0 24 24"><path fill="#AFD6B7" d="M2.68 0h18.64C22.801 0 24 1.035 24 2.31v19.38c0 1.275-1.199 2.31-2.68 2.31H2.68C1.2 24 0 22.965 0 21.69V2.31C0 1.035 1.2 0 2.68 0z"/><path fill="#FFF" d="M4.061 4.769h15.601v.88h-15.6zM4.071 7.547h15.603v.88H4.07zM4.066 10.296h15.602v.88H4.066zM4.077 13.073h15.602v.88H4.077zM4.066 15.834h15.602v.879H4.066zM4.077 18.611h15.602v.88H4.077z"/><path fill="#FFF" d="M3.733 4.795h1.02v14.598h-1.02zM9.036 4.857h1.02v14.597h-1.02zM14.195 4.982h1.022v14.596h-1.022zM19.175 4.888h1.02v14.597h-1.02z"/></svg>