<svg xmlns="http://www.w3.org/2000/svg" width="24" height="24" viewBox="0 0 24 24"><path fill="#CBA3E2" d="M2.311 0h19.378A2.312 2.312 0 0 1 24 2.311V21.69A2.312 2.312 0 0 1 21.689 24H2.311A2.311 2.311 0 0 1 0 21.69V2.31A2.31 2.31 0 0 1 2.311.001z"/><path fill="#FFF" fill-opacity=".967" d="M15.842 12.182L9.73 7.533l.045 8.794 6.067-4.145z"/><path fill="#FFF" d="M1.149 20.146H3.08v1.432H1.149zM5.01 20.146h1.931v1.432H5.01zM8.871 20.146h1.931v1.432H8.871zM12.731 20.146h1.931v1.432h-1.931zM16.592 20.146h1.931v1.432h-1.931zM1.117 2.06h1.93v1.43h-1.93zM4.977 2.06h1.931v1.43H4.977zM8.838 2.06h1.931v1.43H8.838zM12.699 2.06h1.93v1.43h-1.93zM16.56 2.06h1.931v1.43H16.56zM20.453 20.146h1.93v1.432h-1.93zM20.42 2.06h1.931v1.43H20.42z"/></svg>