<svg xmlns="http://www.w3.org/2000/svg" width="24" height="24" viewBox="0 0 24 24"><path fill="#B4CFFA" d="M2.311 0H21.69a2.312 2.312 0 0 1 2.311 2.311v19.378A2.312 2.312 0 0 1 21.69 24H2.311A2.311 2.311 0 0 1 0 21.689V2.311A2.311 2.311 0 0 1 2.311 0z"/><path fill="#8FB5FA" d="M11.701 3.39h1.93v1.431h-1.93zM14.028 3.39h1.931v1.431h-1.931zM16.355 3.39h1.931v1.431h-1.931zM18.684 3.39h1.93v1.431h-1.93zM4.719 5.218h1.932v1.431H4.719zM7.047 5.218h1.93v1.431h-1.93zM9.374 5.218h1.931v1.431H9.374z"/><path fill="#FFF" d="M11.701 5.218h1.93v1.431h-1.93zM14.028 5.218h1.931v1.431h-1.931zM16.355 5.218h1.931v1.431h-1.931zM18.684 5.218h1.93v1.431h-1.93z"/><path fill="#8FB5FA" d="M4.719 7.046h1.932v1.431H4.719z"/><path fill="#77A6F0" d="M7.047 7.046h1.93v1.431h-1.93z"/><path fill="#FFF" d="M9.374 7.046h1.931v1.431H9.374zM11.701 7.046h1.93v1.431h-1.93zM14.028 7.046h1.931v1.431h-1.931zM16.355 7.046h1.931v1.431h-1.931zM18.684 7.046h1.93v1.431h-1.93z"/><path fill="#8FB5FA" d="M2.393 8.874h1.93v1.431h-1.93z"/><path fill="#77A6F0" d="M4.719 8.874h1.932v1.431H4.719zM7.047 8.874h1.93v1.431h-1.93z"/><path fill="#FFF" d="M9.374 8.874h1.931v1.431H9.374zM11.701 8.874h1.93v1.431h-1.93zM14.028 8.874h1.931v1.431h-1.931zM16.355 8.874h1.931v1.431h-1.931zM18.684 8.874h1.93v1.431h-1.93z"/><path fill="#8FB5FA" d="M2.393 10.702h1.93v1.431h-1.93z"/><path fill="#77A6F0" d="M4.719 10.702h1.932v1.431H4.719zM7.047 10.702h1.93v1.431h-1.93z"/><path fill="#FFF" d="M9.374 10.702h1.931v1.431H9.374zM11.701 10.702h1.93v1.431h-1.93zM14.028 10.702h1.931v1.431h-1.931zM16.355 10.702h1.931v1.431h-1.931z"/><path fill="#77A6F0" d="M18.684 10.702h1.93v1.431h-1.93z"/><path fill="#8FB5FA" d="M2.393 12.53h1.93v1.431h-1.93zM4.719 12.53h1.932v1.431H4.719z"/><path fill="#77A6F0" d="M7.047 12.53h1.93v1.431h-1.93z"/><path fill="#FFF" d="M9.374 12.53h1.931v1.431H9.374zM11.701 12.53h1.93v1.431h-1.93zM14.028 12.53h1.931v1.431h-1.931zM16.355 12.53h1.931v1.431h-1.931z"/><path fill="#77A6F0" d="M18.684 12.53h1.93v1.431h-1.93z"/><path fill="#8FB5FA" d="M2.393 14.358h1.93v1.431h-1.93zM4.719 14.358h1.932v1.431H4.719z"/><path fill="#77A6F0" d="M7.047 14.358h1.93v1.431h-1.93zM9.374 14.358h1.931v1.431H9.374zM11.701 14.358h1.93v1.431h-1.93z"/><path fill="#FFF" d="M14.028 14.358h1.931v1.431h-1.931z"/><path fill="#77A6F0" d="M16.355 14.358h1.931v1.431h-1.931z"/><path fill="#8FB5FA" d="M2.393 16.187h1.93v1.431h-1.93zM4.719 16.187h1.932v1.431H4.719zM7.047 16.187h1.93v1.431h-1.93zM9.374 16.187h1.931v1.431H9.374z"/><path fill="#77A6F0" d="M11.701 16.187h1.93v1.431h-1.93zM14.028 16.187h1.931v1.431h-1.931zM16.355 16.187h1.931v1.431h-1.931z"/><path fill="#8FB5FA" d="M4.719 18.015h1.932v1.431H4.719zM7.047 18.015h1.93v1.431h-1.93zM9.374 18.015h1.931v1.431H9.374zM11.701 18.015h1.93v1.431h-1.93z"/><path fill="#77A6F0" d="M14.028 18.015h1.931v1.431h-1.931zM16.355 18.015h1.931v1.431h-1.931z"/><path fill="#8FB5FA" d="M11.701 19.843h1.93v1.431h-1.93z"/><path fill="#77A6F0" d="M14.028 19.843h1.931v1.431h-1.931z"/></svg>