<svg xmlns="http://www.w3.org/2000/svg" width="24" height="24" viewBox="0 0 24 24"><path fill="#93E6F6" d="M2.31 0h19.38A2.312 2.312 0 0 1 24 2.31v19.38A2.312 2.312 0 0 1 21.69 24H2.31A2.312 2.312 0 0 1 0 21.69V2.31A2.313 2.313 0 0 1 2.31 0z"/><path fill="none" stroke="#FFF" stroke-width="1.5" d="M4.13 6.69l2.89-2.891a1.578 1.578 0 0 1 2.228 0l2.891 2.89a1.576 1.576 0 0 1 0 2.229l-2.89 2.89a1.578 1.578 0 0 1-2.229 0l-2.89-2.89a1.574 1.574 0 0 1 0-2.228zM11.811 14.637l2.891-2.89a1.575 1.575 0 0 1 2.227 0l2.891 2.89a1.577 1.577 0 0 1 0 2.229l-2.89 2.89a1.575 1.575 0 0 1-2.228 0l-2.89-2.89a1.577 1.577 0 0 1 0-2.23z"/><path fill="#FFF" d="M10.665 9.015l3.73 3.729a1.062 1.062 0 0 1 0 1.498 1.062 1.062 0 0 1-1.499 0l-3.729-3.73a1.062 1.062 0 0 1 0-1.497 1.062 1.062 0 0 1 1.498 0z"/></svg>